<svg xmlns="http://www.w3.org/2000/svg" viewBox="0 0 500 500"><g id="freepik--Character--inject-2"><path d="M253.21,450.48l1.16,17.57s-17.47,7.08-17.57,10.35l34.15-1-.68-27.46Z" style="fill:#413E66"></path><path d="M253.21,450.48l1.16,17.57s-17.47,7.08-17.57,10.35l34.15-1-.68-27.46Z" style="opacity:0.4"></path><path d="M253.81,467.9c0,.16.85.21,1.69.72s1.29,1.2,1.44,1.13-.12-1-1.15-1.62S253.77,467.74,253.81,467.9Z" style="fill:#263238"></path><path d="M250.28,469.49c0,.16.69.42,1.28,1.11s.78,1.43.94,1.42.25-1-.5-1.81S250.28,469.33,250.28,469.49Z" style="fill:#263238"></path><path d="M248.37,473.83c.15,0,.36-.81-.09-1.71S247,470.88,247,471s.43.62.8,1.36S248.21,473.82,248.37,473.83Z" style="fill:#263238"></path><path d="M254,463.86c.08.15.84-.1,1.78-.07s1.69.32,1.77.17-.64-.72-1.75-.75S253.91,463.73,254,463.86Z" style="fill:#263238"></path><path d="M253.83,460.31a3.1,3.1,0,0,0,1.71-.06,7.25,7.25,0,0,0,1.77-.6,7.84,7.84,0,0,0,1-.55,2.05,2.05,0,0,0,.51-.42.73.73,0,0,0,.05-.89.91.91,0,0,0-.74-.36,2.23,2.23,0,0,0-.64.11,5.45,5.45,0,0,0-1.05.4,5.63,5.63,0,0,0-1.55,1.08c-.77.76-1,1.39-1,1.42s.44-.48,1.23-1.11a6.76,6.76,0,0,1,1.5-.91,6.9,6.9,0,0,1,1-.33c.36-.11.67-.12.77,0s0,.09,0,.19a1.86,1.86,0,0,1-.38.31c-.29.2-.59.38-.88.54a9.69,9.69,0,0,1-1.64.69A11.62,11.62,0,0,0,253.83,460.31Z" style="fill:#263238"></path><path d="M254.05,460.55a2.78,2.78,0,0,0,.4-1.67,5.58,5.58,0,0,0-.29-1.87,5.16,5.16,0,0,0-.47-1,1.39,1.39,0,0,0-1.11-.83.8.8,0,0,0-.7.5,2.33,2.33,0,0,0-.16.63,4,4,0,0,0,0,1.15,3.94,3.94,0,0,0,.79,1.75c.69.86,1.39,1,1.41,1s-.54-.39-1.08-1.22a4.09,4.09,0,0,1-.59-1.59,3.65,3.65,0,0,1,0-1c.05-.37.17-.66.31-.63s.47.26.62.54a6,6,0,0,1,.45.92,6.21,6.21,0,0,1,.38,1.69C254.12,459.89,254,460.52,254.05,460.55Z" style="fill:#263238"></path><path d="M264.53,449.82l1.31,17.56s-17.41,7.23-17.48,10.5l34.14-1.32-.92-27.45Z" style="fill:#413E66"></path><g style="opacity:0.6000000000000001"><path d="M276.34,465.49a1.41,1.41,0,0,1,1,1.56,1.36,1.36,0,0,1-1.54,1,1.47,1.47,0,0,1-1.07-1.66,1.39,1.39,0,0,1,1.71-.89" style="fill:#fff"></path></g><path d="M282.5,476.56l-.2-2.76-32.66,2.3s-1.49.72-1.28,1.78Z" style="fill:#fff;opacity:0.6000000000000001"></path><path d="M265.28,467.23c0,.17.85.21,1.69.71s1.31,1.19,1.46,1.12-.14-1-1.17-1.62S265.24,467.08,265.28,467.23Z" style="fill:#263238"></path><path d="M261.76,468.85c0,.16.7.42,1.29,1.1s.79,1.42.95,1.41.24-1-.52-1.8S261.75,468.69,261.76,468.85Z" style="fill:#263238"></path><path d="M259.89,473.21c.15,0,.35-.81-.11-1.71s-1.26-1.22-1.32-1.08.43.61.8,1.35S259.72,473.2,259.89,473.21Z" style="fill:#263238"></path><path d="M265.43,463.19c.07.15.83-.11,1.77-.08s1.69.3,1.77.15-.64-.71-1.76-.73S265.34,463.07,265.43,463.19Z" style="fill:#263238"></path><polygon points="264.79 453.3 265.02 456.43 281.79 455.62 281.71 452.8 264.79 453.3" style="opacity:0.30000000000000004"></polygon><path d="M265.23,459.65a3.35,3.35,0,0,0,1.7-.08,7.53,7.53,0,0,0,1.77-.62,6.82,6.82,0,0,0,1-.56,1.69,1.69,0,0,0,.5-.42.73.73,0,0,0,0-.89.92.92,0,0,0-.75-.35,2.37,2.37,0,0,0-.64.11,6.94,6.94,0,0,0-1.05.41,6.14,6.14,0,0,0-1.53,1.09c-.77.77-1,1.4-.95,1.43s.44-.48,1.22-1.12a6.69,6.69,0,0,1,1.49-.92,6.92,6.92,0,0,1,1-.34c.36-.11.67-.12.77,0s0,.09,0,.2a2.07,2.07,0,0,1-.37.31c-.29.2-.59.39-.88.55a9.16,9.16,0,0,1-1.63.69A10.49,10.49,0,0,0,265.23,459.65Z" style="fill:#263238"></path><path d="M265.45,459.88a2.74,2.74,0,0,0,.39-1.67,5.37,5.37,0,0,0-.31-1.87,6.15,6.15,0,0,0-.47-1,1.43,1.43,0,0,0-1.13-.82.78.78,0,0,0-.69.51,2,2,0,0,0-.15.63,3.66,3.66,0,0,0,0,1.15,4,4,0,0,0,.8,1.74c.7.86,1.4,1,1.42,1s-.55-.38-1.09-1.21a3.89,3.89,0,0,1-.6-1.59,3.27,3.27,0,0,1,0-1c0-.36.16-.66.3-.63s.47.26.62.54a5.56,5.56,0,0,1,.46.91,6.39,6.39,0,0,1,.4,1.69C265.51,459.22,265.36,459.85,265.45,459.88Z" style="fill:#263238"></path><path d="M300.6,202.21a23.38,23.38,0,0,1,13.54,6.34,47.72,47.72,0,0,1,9.11,12.12c4.64,8.25,8.13,17.38,8.31,26.84s-3.33,19.28-10.68,25.25-18.72,7.14-26.31,1.49a23.15,23.15,0,0,1-7.27-9.69c-3.36-7.93-3.23-16.88-2.48-25.47s2.07-17.24.88-25.78" style="fill:#413E66"></path><g style="opacity:0.5"><path d="M300.6,202.21a23.38,23.38,0,0,1,13.54,6.34,47.72,47.72,0,0,1,9.11,12.12c4.64,8.25,8.13,17.38,8.31,26.84s-3.33,19.28-10.68,25.25-18.72,7.14-26.31,1.49a23.15,23.15,0,0,1-7.27-9.69c-3.36-7.93-3.23-16.88-2.48-25.47s2.07-17.24.88-25.78"></path></g><path d="M307.62,278.43s-.1.05-.32.07a2.44,2.44,0,0,1-.93-.11,4.29,4.29,0,0,1-2.53-2.29,40.92,40.92,0,0,1-1.7-4.77c-.59-1.81-1.22-3.79-1.89-5.87-1.32-4.17-2.5-8-3.32-10.7q-.57-2-1-3.27a6.35,6.35,0,0,1-.28-1.21,6,6,0,0,1,.47,1.16l1.1,3.21c.91,2.72,2.14,6.49,3.46,10.66.66,2.08,1.28,4.06,1.85,5.88a46,46,0,0,0,1.59,4.75,4.26,4.26,0,0,0,2.27,2.27A5.18,5.18,0,0,0,307.62,278.43Z" style="fill:#263238"></path><path d="M330.38,236.9A9.41,9.41,0,0,1,329,239a25.23,25.23,0,0,1-4.28,4.29,25.74,25.74,0,0,1-5.16,3.17,8.67,8.67,0,0,1-2.37.84,23.23,23.23,0,0,1,2.21-1.16,33.43,33.43,0,0,0,5-3.24,32.29,32.29,0,0,0,4.31-4.13A18.42,18.42,0,0,1,330.38,236.9Z" style="fill:#263238"></path><path d="M329.12,237.88a3,3,0,0,1,1.72-.06,5.48,5.48,0,0,1,1.79.66,4.68,4.68,0,0,1,.92.67,1.5,1.5,0,0,1,.51,1.24,1,1,0,0,1-.34.68.94.94,0,0,1-.72.21,2.08,2.08,0,0,1-1.09-.54c-.53-.49-1-.94-1.31-1.33a4.74,4.74,0,0,1-1-1.39,8.16,8.16,0,0,1,1.26,1.14c.38.36.84.79,1.35,1.22a1.81,1.81,0,0,0,.84.42.47.47,0,0,0,.53-.46c.08-.63-.64-1.12-1.18-1.47a5.67,5.67,0,0,0-1.62-.7C329.78,237.91,329.12,238,329.12,237.88Z" style="fill:#263238"></path><path d="M342.83,222.36a29.06,29.06,0,0,1-3.06.43,58.33,58.33,0,0,0-7.29,1.45,56.77,56.77,0,0,0-7,2.42,27.09,27.09,0,0,1-2.86,1.17,3.18,3.18,0,0,1,.7-.46c.46-.27,1.15-.62,2-1a43.21,43.21,0,0,1,14.43-3.9c.95-.09,1.73-.12,2.27-.12A2.74,2.74,0,0,1,342.83,222.36Z" style="fill:#455a64"></path><path d="M321.76,223.56a7.29,7.29,0,0,1,1.15-5.21,21.17,21.17,0,0,1,3.6-4.09,11.14,11.14,0,0,1-4,10.38" style="fill:#455a64"></path><path d="M247,267.07S219.62,342.65,222,353.19s24.88,100.42,28.3,100.42,29.52-5.34,29.46-5.87-19.17-92.17-19.17-92.17l18.16-92.78L260,265.22" style="fill:#263238"></path><path d="M262.71,257.17c-12.42,26.67-6.45,57.49-7,86.9s1.67,56.62.84,85.56A53.72,53.72,0,0,0,262,454h21.34c4.68-19.31-1.66-47.11,1.32-71.58,2-16.25,9.76-40.15,14.07-55.93,6.34-23.24,1-47.39-8.38-65.15" style="fill:#263238"></path><path d="M258,283.9a2.56,2.56,0,0,1,0,.41c0,.3,0,.7,0,1.22,0,1.07-.12,2.64-.25,4.66-.23,4.06-.77,9.91-1.61,17.11s-1.51,15.82-1.91,25.4-.46,20.12-.25,31.18c.44,22.13,1.76,42.14,2.73,56.61.5,7.22.9,13.07,1.19,17.14.13,2,.24,3.57.31,4.66,0,.52.05.92.07,1.22a2.12,2.12,0,0,1,0,.41s0-.14-.05-.41-.07-.7-.12-1.21c-.1-1.09-.23-2.65-.41-4.65-.33-4-.81-9.9-1.34-17.13-1.06-14.47-2.44-34.48-2.87-56.63-.21-11.07-.13-21.63.29-31.21s1.13-18.21,2-25.42,1.47-13,1.77-17.08c.15-2,.26-3.57.34-4.66,0-.51.07-.91.09-1.21A3.37,3.37,0,0,1,258,283.9Z" style="fill:#455a64"></path><path d="M256,302.78s-.12-.07-.31-.24a6.49,6.49,0,0,1-.74-.84A10.21,10.21,0,0,1,253.2,298a18,18,0,0,1-.26-6.11c.24-2.29.7-4.75,1-7.37a123.26,123.26,0,0,0,.85-13.45c0-1.73,0-3.12,0-4.09a9.69,9.69,0,0,1,0-1.5,9.53,9.53,0,0,1,.17,1.49c.06,1,.14,2.37.16,4.1a99.91,99.91,0,0,1-.71,13.51c-.3,2.63-.77,5.11-1,7.36a18.28,18.28,0,0,0,.14,6,11.16,11.16,0,0,0,1.52,3.72C255.6,302.38,256,302.75,256,302.78Z" style="fill:#455a64"></path><path d="M259.08,269.09c.06.05-.24.38-.13,1a1.2,1.2,0,0,0,.51.79,1,1,0,0,0,1.07-.08,1,1,0,0,0,.48-1,1.23,1.23,0,0,0-.55-.78c-.51-.32-.92-.16-.94-.24s.4-.38,1.11-.07a1.51,1.51,0,0,1,.83,1,1.43,1.43,0,0,1-.65,1.46,1.4,1.4,0,0,1-1.59.05,1.46,1.46,0,0,1-.62-1.13C258.57,269.32,259.06,269,259.08,269.09Z" style="fill:#455a64"></path><path d="M283.71,281.59a1.85,1.85,0,0,1-.4.7,5.65,5.65,0,0,1-1.66,1.45,6.84,6.84,0,0,1-3.14.91,7.76,7.76,0,0,1-3.89-.91,9.53,9.53,0,0,1-3.06-2.57,11.56,11.56,0,0,1-1.61-2.83,12.12,12.12,0,0,1-.63-2.09,2.25,2.25,0,0,1-.09-.79c.08,0,.3,1.1,1,2.74a10.59,10.59,0,0,0,4.58,5.1,7.53,7.53,0,0,0,3.65.89,6.74,6.74,0,0,0,3-.76A8.63,8.63,0,0,0,283.71,281.59Z" style="fill:#455a64"></path><path d="M301.23,311.82a5.87,5.87,0,0,1-.84-.71L298.14,309l-7.7-7.36-.07-.07v-.1c0-2.12,0-4.42,0-6.81,0-5.43,0-10.39.06-14.2v-.19h.19l5.43.21,1.48.09a1.54,1.54,0,0,1,.51.07,2.66,2.66,0,0,1-.52,0H296l-5.43-.05.19-.19c0,3.81,0,8.77.06,14.2,0,2.39,0,4.69,0,6.81l-.07-.17,7.57,7.48,2.16,2.2A5.62,5.62,0,0,1,301.23,311.82Z" style="fill:#455a64"></path><path d="M275.46,449.26c.13,0,.27.64.3,1.43s-.06,1.43-.2,1.44-.27-.64-.3-1.43S275.32,449.27,275.46,449.26Z" style="fill:#455a64"></path><path d="M275.28,443.54c.13,0,.26.63.29,1.42s-.07,1.44-.21,1.44-.27-.63-.29-1.42S275.14,443.54,275.28,443.54Z" style="fill:#455a64"></path><path d="M275.14,437.81c.14,0,.26.64.28,1.43s-.08,1.43-.22,1.44-.26-.64-.28-1.43S275,437.82,275.14,437.81Z" style="fill:#455a64"></path><path d="M275,432.09c.14,0,.26.63.27,1.42s-.09,1.44-.23,1.44-.25-.64-.27-1.43S274.9,432.09,275,432.09Z" style="fill:#455a64"></path><path d="M275,426.36c.14,0,.26.64.26,1.43s-.1,1.43-.23,1.43-.26-.64-.26-1.43S274.85,426.36,275,426.36Z" style="fill:#455a64"></path><path d="M275,420.63c.13,0,.25.64.25,1.43s-.11,1.44-.25,1.44-.25-.64-.25-1.44S274.83,420.63,275,420.63Z" style="fill:#455a64"></path><path d="M275,414.9c.14,0,.25.65.24,1.44s-.12,1.43-.26,1.43-.24-.64-.24-1.44S274.85,414.9,275,414.9Z" style="fill:#455a64"></path><path d="M275.06,409.18c.13,0,.24.64.23,1.43S275.16,412,275,412s-.24-.64-.23-1.43S274.92,409.18,275.06,409.18Z" style="fill:#455a64"></path><path d="M275.16,403.45c.14,0,.24.65.22,1.44s-.14,1.43-.27,1.42-.24-.64-.22-1.43S275,403.45,275.16,403.45Z" style="fill:#455a64"></path><path d="M275.31,397.72c.14,0,.23.65.21,1.44s-.15,1.43-.29,1.43-.23-.65-.21-1.44S275.17,397.72,275.31,397.72Z" style="fill:#455a64"></path><path d="M275.5,392c.14,0,.22.65.2,1.44s-.16,1.43-.3,1.42-.23-.65-.2-1.44S275.36,392,275.5,392Z" style="fill:#455a64"></path><path d="M275.73,386.28c.13,0,.22.65.19,1.44s-.17,1.42-.31,1.42-.22-.65-.19-1.44S275.59,386.27,275.73,386.28Z" style="fill:#455a64"></path><path d="M276,380.56c.13,0,.21.65.18,1.44s-.19,1.42-.32,1.42-.22-.66-.18-1.45S275.86,380.55,276,380.56Z" style="fill:#455a64"></path><path d="M276.31,374.84c.13,0,.21.65.16,1.44s-.19,1.42-.32,1.42-.22-.66-.17-1.45S276.17,374.83,276.31,374.84Z" style="fill:#455a64"></path><path d="M276.66,369.12c.13,0,.21.66.16,1.45s-.21,1.42-.34,1.41-.21-.66-.16-1.45S276.52,369.11,276.66,369.12Z" style="fill:#455a64"></path><path d="M277.05,363.41c.14,0,.2.65.15,1.44s-.21,1.42-.35,1.41-.2-.65-.15-1.44S276.91,363.4,277.05,363.41Z" style="fill:#455a64"></path><path d="M277.48,357.7c.14,0,.2.65.14,1.44s-.22,1.42-.36,1.41-.2-.66-.14-1.45S277.34,357.68,277.48,357.7Z" style="fill:#455a64"></path><path d="M278,352c.14,0,.2.66.13,1.44s-.23,1.42-.37,1.41-.19-.66-.12-1.45S277.82,352,278,352Z" style="fill:#455a64"></path><path d="M278.47,346.28c.13,0,.19.66.11,1.45s-.24,1.42-.37,1.4-.19-.66-.12-1.44S278.33,346.27,278.47,346.28Z" style="fill:#455a64"></path><path d="M279,340.58c.14,0,.19.66.11,1.45s-.25,1.42-.39,1.4-.18-.66-.11-1.45S278.89,340.57,279,340.58Z" style="fill:#455a64"></path><path d="M279.62,334.89c.13,0,.18.66.09,1.45s-.26,1.41-.4,1.39-.17-.66-.09-1.45S279.48,334.87,279.62,334.89Z" style="fill:#455a64"></path><path d="M280.25,329.19c.14,0,.18.67.09,1.45s-.27,1.41-.41,1.4-.18-.67-.09-1.45S280.12,329.18,280.25,329.19Z" style="fill:#455a64"></path><path d="M280.93,323.51c.13,0,.17.66.07,1.45s-.28,1.41-.41,1.39-.17-.67-.08-1.45S280.79,323.49,280.93,323.51Z" style="fill:#455a64"></path><path d="M281.64,317.82c.14,0,.17.67.07,1.45s-.29,1.41-.43,1.39-.16-.66-.06-1.45S281.51,317.81,281.64,317.82Z" style="fill:#455a64"></path><path d="M282.4,312.15c.14,0,.16.66.06,1.45s-.31,1.4-.44,1.38-.16-.66-.06-1.45S282.27,312.13,282.4,312.15Z" style="fill:#455a64"></path><path d="M283.2,306.47c.14,0,.16.67,0,1.46s-.31,1.4-.44,1.38-.16-.67-.05-1.45S283.06,306.45,283.2,306.47Z" style="fill:#455a64"></path><path d="M284,300.81c.13,0,.15.67,0,1.45s-.32,1.4-.46,1.38-.15-.67,0-1.45S283.9,300.79,284,300.81Z" style="fill:#455a64"></path><path d="M284.92,295.15c.13,0,.14.67,0,1.45s-.33,1.4-.47,1.38-.14-.67,0-1.46S284.78,295.13,284.92,295.15Z" style="fill:#455a64"></path><path d="M285.82,289.49c.13,0,.14.67,0,1.45s-.33,1.4-.47,1.38-.15-.67,0-1.46S285.68,289.47,285.82,289.49Z" style="fill:#455a64"></path><path d="M286.6,283.82c.14,0,.17.66.06,1.45s-.29,1.41-.43,1.39-.16-.67-.06-1.46S286.47,283.8,286.6,283.82Z" style="fill:#455a64"></path><path d="M287.09,278.11c.13,0,.2.65.15,1.45S287,281,286.89,281s-.2-.66-.15-1.45S287,278.1,287.09,278.11Z" style="fill:#455a64"></path><path d="M287.07,272.38c.14,0,.27.63.29,1.43s-.07,1.44-.21,1.44-.26-.64-.29-1.43S286.93,272.39,287.07,272.38Z" style="fill:#455a64"></path><path d="M286.33,266.71c.13,0,.35.59.48,1.37s.13,1.44,0,1.45-.35-.59-.48-1.37S286.19,266.74,286.33,266.71Z" style="fill:#455a64"></path><path d="M284.91,261.86c.13-.05.4.38.59,1s.25,1.08.12,1.12-.39-.39-.59-1S284.79,261.91,284.91,261.86Z" style="fill:#455a64"></path><path d="M299.5,285.09a36.34,36.34,0,0,1-8.51,0,37.84,37.84,0,0,1,8.51,0Z" style="fill:#455a64"></path><path d="M284.61,383.73c-.13,0-1.09-2-2.45-4.5s-2.6-4.4-2.48-4.48a26,26,0,0,1,4.93,9Z" style="fill:#455a64"></path><path d="M252.19,358.84a11.08,11.08,0,0,0-8.73-4.92,3.48,3.48,0,0,1,1.57-.13,8.88,8.88,0,0,1,3.63,1.11,8.63,8.63,0,0,1,2.83,2.54A3.31,3.31,0,0,1,252.19,358.84Z" style="fill:#455a64"></path><path d="M252.59,357.84c-.15.06-1.15-2.57-3.06-5.42s-3.92-4.81-3.82-4.92a5.33,5.33,0,0,1,1.42,1.19,23,23,0,0,1,4.91,7.39A6,6,0,0,1,252.59,357.84Z" style="fill:#455a64"></path><path d="M271.45,361.33c-.12.07-3-4.89-6.35-11.07s-6-11.24-5.9-11.31,3,4.89,6.34,11.07S271.57,361.27,271.45,361.33Z" style="fill:#455a64"></path><path d="M273.75,354a24.5,24.5,0,0,1-1.55-2.8c-.91-1.74-2.21-4.13-3.73-6.71s-3-4.88-4.07-6.53a22.7,22.7,0,0,1-1.69-2.7,17.13,17.13,0,0,1,2,2.5c1.16,1.61,2.67,3.88,4.21,6.47s2.78,5,3.62,6.82A17.11,17.11,0,0,1,273.75,354Z" style="fill:#455a64"></path><path d="M272,337.33a64.44,64.44,0,0,1-4.65,6.38,63,63,0,0,1-5.05,6.09,127.39,127.39,0,0,1,9.7-12.47Z" style="fill:#455a64"></path><path d="M275.08,343.55a11.86,11.86,0,0,1-1.48,1.69c-.94,1-2.22,2.43-3.55,4.06s-2.46,3.17-3.27,4.3a11.8,11.8,0,0,1-1.35,1.78,8.64,8.64,0,0,1,1.06-2,45.76,45.76,0,0,1,3.17-4.41,43.21,43.21,0,0,1,3.69-4A8.55,8.55,0,0,1,275.08,343.55Z" style="fill:#455a64"></path><path d="M327,299.15c-.3-3.55,3.59.48,5,1.93s6.13,5.7,6.92,5.61c1.17-.13,1.24-1.41-.24-2.82s-5.6-5.95-4.8-6.67,8,6.74,8,6.74,1.29,1.84,2.25,1c1.71-1.46-6.58-8.82-7.39-9.5-.56-.48.28-1.3.86-.76s7.06,7.61,8.82,6.14c1.36-1.12-6.76-6.11-7.29-8.32s5.77,4.41,7,3.28c.46-.42.75-.8-3.42-4.08-2-1.59-9.62-6.23-9.62-6.23L313.2,238l-18.5,2.21,28,55.37c.32.75.68,1.63,1.05,2.7.32.91,2.2,6.6,2.46,7.53C326.6,307.25,330.64,310.86,327,299.15Z" style="fill:#b77153"></path><path d="M187.65,191.37c2.19,2,10.38,11.82,10.38,11.82l11.63-5.52c-.31-.89-3-11.13-3.32-12.38A9.73,9.73,0,0,1,206,182a15.16,15.16,0,0,1,.74-4.07c.52-1.16-.64-2.35-1.65-1.78s-2.51,3.75-2.47,7.85-13.91-4.43-16.21-2.13Z" style="fill:#b77153"></path><path d="M208.22,192.51l17.57,38.74,8-17.49L249,226.13,238.4,244.89a14.12,14.12,0,0,1-16.19,6.6h0a14.11,14.11,0,0,1-9.34-8.7L195,198.4l1-1.38Z" style="fill:#b77153"></path><path d="M228,243.72a28.14,28.14,0,0,0-.22-6.51,27.78,27.78,0,0,0-2.2-6.12,5.23,5.23,0,0,1,1.11,1.6,15.75,15.75,0,0,1,1.58,4.43,15.39,15.39,0,0,1,.17,4.7A5.18,5.18,0,0,1,228,243.72Z" style="fill:#995037"></path><path d="M205,185.33c.27,5.47-3.56,10.1-8.55,10.35s-9.24-4-9.51-9.46,3.56-10.11,8.54-10.35S204.73,179.86,205,185.33Z" style="fill:#263238"></path><path d="M207,185.12c.27,5.47-3.56,10.1-8.54,10.35s-9.25-4-9.52-9.47,3.56-10.1,8.54-10.34S206.74,179.65,207,185.12Z" style="fill:#455a64"></path><path d="M206.06,185.16c.24,4.9-3.19,9-7.65,9.26s-8.27-3.57-8.51-8.46,3.18-9,7.64-9.26S205.82,180.27,206.06,185.16Z" style="fill:#e0e0e0"></path><polygon points="201.52 180.24 196.84 185.97 199.06 187.12 201.52 180.24" style="fill:#413E66"></polygon><path d="M197.56,179.7c-.14,0-.28-.47-.33-1.08s0-1.11.17-1.12.29.48.33,1.08S197.69,179.69,197.56,179.7Z" style="fill:#263238"></path><path d="M200.25,193.42c-.14,0-.3-.28-.37-.68s0-.74.11-.77.3.28.37.68S200.39,193.39,200.25,193.42Z" style="fill:#263238"></path><path d="M191.63,186.86c0,.13-.3.25-.69.26s-.7-.09-.71-.23.31-.25.7-.26S191.63,186.72,191.63,186.86Z" style="fill:#263238"></path><path d="M205,185c0,.14-.27.26-.61.28s-.63-.09-.64-.23.27-.26.62-.27S204.94,184.85,205,185Z" style="fill:#263238"></path><path d="M186.81,181.7a15.26,15.26,0,0,1,5.41.41,3.34,3.34,0,0,1,1.49.5,1.14,1.14,0,0,1,.42,1.38c-.3.53-1,.57-1.62.55-1.35,0-2.85.25-4.2.2,1.72.15,3.32.29,5.25.53a1.79,1.79,0,0,1,1.62,1.57,1.47,1.47,0,0,1-1.34,1.34,15.79,15.79,0,0,1-2.13,0s-2.77,0-2.89.41c1.73,0,4,.36,5.75.51.47,0,.69.69.8,1.15a1,1,0,0,1-.5,1.22,1.55,1.55,0,0,1-.68.07c-2.24-.07-3.41.08-5.65,0,0,0-1.3-.24-1.53-.94s.53-1.7.53-1.7a2.07,2.07,0,0,1-1-1.49,4.9,4.9,0,0,1,.45-2.32.83.83,0,0,1-.64-.66C186.22,183.91,185.61,181.93,186.81,181.7Z" style="fill:#b77153"></path><path d="M195,189.38a15,15,0,0,1-3.92-.21c-1.07-.1-2.06-.32-2.72-.32a2.54,2.54,0,0,0-1,.29s0-.13.16-.28a1.49,1.49,0,0,1,.83-.36,15.48,15.48,0,0,1,2.81.18A15.89,15.89,0,0,1,195,189.38Z" style="fill:#995037"></path><path d="M194.37,185.44a15,15,0,0,1-3.88-.2c-1.06-.1-2-.33-2.67-.31s-.95.39-1,.33.18-.54,1-.68a4.93,4.93,0,0,1,1.27,0l1.5.16A15.29,15.29,0,0,1,194.37,185.44Z" style="fill:#995037"></path><path d="M251.17,140.68c3-4.94,7.49-9.15,13.05-10.67s12.12.14,15.53,4.78c1,1.35,1.73,2.93,3.05,4,3.71,2.89,9.3-.14,13.78,1.33,4.3,1.42,6.16,6.42,7,10.87s1.44,9.41,4.84,12.4c4.06,3.58,10.39,2.83,15.15,5.41a11.81,11.81,0,0,1,3.82,17.45c-3,4-8.47,6.12-10.1,10.84-.48,1.39-.57,2.89-1,4.29-1.37,4.32-6.06,7-10.59,7.08s-8.88-1.86-12.68-4.33-7.24-5.48-11.13-7.81-8.42-4-12.91-3.38" style="fill:#263238"></path><path d="M327.38,163.9a4.42,4.42,0,0,1-1.09,1.48,11.44,11.44,0,0,1-8.07,3.41,4.59,4.59,0,0,1-1.83-.25,14.18,14.18,0,0,0,11-4.64Z" style="fill:#263238"></path><path d="M251.21,189.59S240,214,240.61,218.21s3.92,21,3.92,21l.93,8.49a14,14,0,0,1-2.17,9.28,8.81,8.81,0,0,0-1.5,4.24,9.13,9.13,0,0,0,5.17,5.88s42.5-5.76,43.38-5.76S288,235.68,288,235.68l6.48-43.4s-1.94-2.85-15.34-4.9C271.07,186.15,251.21,189.59,251.21,189.59Z" style="fill:#413E66"></path><path d="M251.21,189.59a29.6,29.6,0,0,0-11.94,9.26c-3.05,4-15,29-15,29s9.5,10.63,8.32,19.71,4.14,11.82,8,8.49,9.11-13.56,9.11-13.56Z" style="fill:#413E66"></path><path d="M294.46,192.28s23,35.69,23.48,43.41-10.36,20.76-15.28,22S288,232.17,288,232.17Z" style="fill:#413E66"></path><path d="M316.67,241.71a10.32,10.32,0,0,1-.73-1.36l-1.83-3.77c-1.55-3.19-3.7-7.57-6.18-12.37s-4.81-9.09-6.51-12.19l-2-3.68a9.14,9.14,0,0,1-.69-1.38,9,9,0,0,1,.85,1.28c.53.84,1.26,2.07,2.15,3.6,1.79,3.06,4.17,7.34,6.65,12.14s4.59,9.22,6.05,12.45c.74,1.61,1.31,2.92,1.7,3.84A9.38,9.38,0,0,1,316.67,241.71Z" style="fill:#263238"></path><path d="M276.09,249.65a4.65,4.65,0,0,1-.94.57,27.89,27.89,0,0,1-2.74,1.29A37.71,37.71,0,0,1,252.82,254a27.51,27.51,0,0,1-3-.56,4.48,4.48,0,0,1-1.07-.33c0-.08,1.56.27,4.08.54a42,42,0,0,0,19.41-2.45C274.65,250.29,276.05,249.57,276.09,249.65Z" style="fill:#263238"></path><path d="M273.84,232.74a2.87,2.87,0,0,1,0,.9,7.62,7.62,0,0,1-.1,1.05,12.37,12.37,0,0,1-.23,1.38,19.13,19.13,0,0,1-1.07,3.47,20.8,20.8,0,0,1-5.07,7.28,18.46,18.46,0,0,1-2.89,2.2,12.61,12.61,0,0,1-1.21.7,8.55,8.55,0,0,1-1,.45c-.53.22-.83.33-.85.29s1.14-.58,2.82-1.73a22.31,22.31,0,0,0,2.77-2.25,23.64,23.64,0,0,0,2.83-3.31,24.11,24.11,0,0,0,2.13-3.81,22.48,22.48,0,0,0,1.15-3.37C273.68,234,273.75,232.74,273.84,232.74Z" style="fill:#263238"></path><g style="opacity:0.2"><path d="M248.41,265.62a14.39,14.39,0,0,1,7.81-9.59c2-.94,4.66-1.87,4.88-4.09a7.92,7.92,0,0,0-.83-3.21c-1.37-4.09.76-8.45,3-12.15s4.62-7.79,3.86-12a295,295,0,0,0-17.91,36.76"></path></g><path d="M308.36,215.48a23.43,23.43,0,0,0-3.17-1.31,17.63,17.63,0,0,0-9.21-.39,18,18,0,0,0-5.86,2.54c-2,1.24-3.91,2.8-6.12,4.25a15.94,15.94,0,0,1-7.71,2.94,23,23,0,0,1-8.73-1.58,53.15,53.15,0,0,0-8.44-2.48,25.41,25.41,0,0,0-8.12,0,28.48,28.48,0,0,0-7.05,2.16,53.1,53.1,0,0,1-6.08,2.34,11.57,11.57,0,0,1-9.21-.77,6.51,6.51,0,0,1-1.91-1.72,4.47,4.47,0,0,1-.46-.77,7.73,7.73,0,0,0,2.46,2.33,11.54,11.54,0,0,0,9,.59,52.53,52.53,0,0,0,6-2.38,29.21,29.21,0,0,1,7.15-2.24,26,26,0,0,1,8.27,0,53.32,53.32,0,0,1,8.51,2.49,22.56,22.56,0,0,0,8.55,1.56,15.57,15.57,0,0,0,7.49-2.83c2.19-1.42,4.15-3,6.15-4.22a18.39,18.39,0,0,1,6-2.53,17.59,17.59,0,0,1,9.34.54A12,12,0,0,1,308.36,215.48Z" style="fill:#fafafa"></path><path d="M311.47,220a.67.67,0,0,1-.22-.09l-.63-.3a21,21,0,0,0-2.5-.95,29.51,29.51,0,0,0-9.72-1.2,15.4,15.4,0,0,0-6.49,1.63,59.5,59.5,0,0,0-6.49,4.33,19.67,19.67,0,0,1-7.85,3.74c-3.05.54-6.23-.19-9.25-1.18a64.39,64.39,0,0,0-8.86-2.66,25.28,25.28,0,0,0-8.54-.06,30.32,30.32,0,0,0-7.41,2.33,39.74,39.74,0,0,1-6.43,2.37,14.79,14.79,0,0,1-5.65.2,13,13,0,0,1-4.09-1.27,6.63,6.63,0,0,1-2.12-1.67,3.84,3.84,0,0,1-.51-.79,7,7,0,0,0,2.72,2.29,13.23,13.23,0,0,0,4,1.16,14.45,14.45,0,0,0,5.53-.26,42.17,42.17,0,0,0,6.35-2.4,29.91,29.91,0,0,1,7.49-2.41,25.43,25.43,0,0,1,8.7,0,64.92,64.92,0,0,1,8.94,2.67c3,1,6.08,1.68,9,1.17a19.34,19.34,0,0,0,7.66-3.63,56.9,56.9,0,0,1,6.57-4.32,15.68,15.68,0,0,1,6.66-1.62,28.36,28.36,0,0,1,9.8,1.37A12.82,12.82,0,0,1,311.47,220Z" style="fill:#fafafa"></path><path d="M302.54,205.28a31.44,31.44,0,0,0-4.55,2.34,25.26,25.26,0,0,0-4.27,3.52,19.12,19.12,0,0,0-3.84,5.52,27.75,27.75,0,0,0-2.25,12,21.75,21.75,0,0,0,.9,5,1.79,1.79,0,0,1-.17-.32,7.26,7.26,0,0,1-.37-1,14.76,14.76,0,0,1-.72-3.72,26.87,26.87,0,0,1,2.15-12.25,19.18,19.18,0,0,1,4-5.63,24,24,0,0,1,4.41-3.49,18.72,18.72,0,0,1,3.4-1.67c.42-.16.76-.24,1-.31S302.53,205.26,302.54,205.28Z" style="fill:#263238"></path><path d="M249.14,267.78a2.59,2.59,0,0,1-.51-.16c-.33-.11-.8-.29-1.41-.56a15.71,15.71,0,0,1-2.14-1.1,8.35,8.35,0,0,1-2.37-2.17,5.74,5.74,0,0,1-1.17-3.71,7.94,7.94,0,0,1,1.93-4,11.58,11.58,0,0,0,1.23-2,8.37,8.37,0,0,0,.69-2.31,17.12,17.12,0,0,0-.16-5.13c-1.32-7-2.67-13.38-3.54-18-.42-2.25-.77-4.1-1-5.46-.1-.6-.19-1.1-.26-1.49a1.92,1.92,0,0,1-.05-.53,2.5,2.5,0,0,1,.15.51c.09.39.21.87.35,1.47.29,1.35.7,3.19,1.19,5.43,1,4.6,2.35,10.93,3.68,18a17.37,17.37,0,0,1,.15,5.28,9,9,0,0,1-.74,2.43,11.78,11.78,0,0,1-1.29,2.06,7.61,7.61,0,0,0-1.89,3.78,5.38,5.38,0,0,0,1.05,3.48,8.29,8.29,0,0,0,2.23,2.14,18,18,0,0,0,2.07,1.16l1.37.64A2.39,2.39,0,0,1,249.14,267.78Z" style="fill:#263238"></path><path d="M241.72,228.74c-.26-4.73-2.17-9.21-2.79-13.91a76.13,76.13,0,0,1-.21-15.18c.37-3.19,5.61-8.75,10.31-9.29-3.64,12.59-6.53,26.85-6.85,40" style="fill:#413E66"></path><g style="opacity:0.5"><path d="M241.72,228.74c-.26-4.73-2.17-9.21-2.79-13.91a76.13,76.13,0,0,1-.21-15.18c.37-3.19,5.61-8.75,10.31-9.29-3.64,12.59-6.53,26.85-6.85,40"></path></g><path d="M241.66,194.6a6.88,6.88,0,0,1-.07,1.32c-.08.94-.19,2.13-.31,3.56-.24,3-.48,7.17-.43,11.78s.39,8.76.7,11.76c.15,1.43.28,2.62.39,3.55a6.2,6.2,0,0,1,.09,1.32,7.67,7.67,0,0,1-.28-1.29c-.16-.83-.35-2-.55-3.54a99.41,99.41,0,0,1-.84-11.8,101,101,0,0,1,.57-11.81c.17-1.51.33-2.72.47-3.56A5.93,5.93,0,0,1,241.66,194.6Z" style="fill:#263238"></path><path d="M282.21,187.8s-12.88,31.26,5.8,47.87l1.77.79s-4.09-8.53-5.6-15.31c-1.67-7.48,6.07-31.65,6.07-31.65A20.14,20.14,0,0,0,282.21,187.8Z" style="fill:#413E66"></path><path d="M282.21,187.8s-12.88,31.26,5.8,47.87l1.77.79c-.43-1.21-4.92-10.82-5.6-15.31-1.17-7.58,6.07-31.65,6.07-31.65A20.14,20.14,0,0,0,282.21,187.8Z" style="opacity:0.5"></path><path d="M289.26,188.85a2.52,2.52,0,0,1-.2.46l-.66,1.27a22.21,22.21,0,0,0-1,2c-.35.8-.81,1.69-1.18,2.73l-.63,1.62c-.21.56-.37,1.17-.57,1.79-.43,1.23-.73,2.58-1.08,4a49.11,49.11,0,0,0-.45,18.87c.29,1.43.52,2.8.89,4,.17.62.31,1.24.49,1.81s.37,1.12.55,1.64c.32,1.07.74,2,1,2.79s.64,1.51.91,2.07l.6,1.29c.14.3.2.46.18.47a2.82,2.82,0,0,1-.27-.42l-.68-1.26a19.73,19.73,0,0,1-1-2,29,29,0,0,1-1.13-2.78c-.19-.52-.38-1.07-.58-1.65s-.35-1.19-.53-1.82c-.39-1.25-.64-2.63-.94-4.07a47.5,47.5,0,0,1,.45-19.05c.37-1.43.69-2.79,1.13-4,.21-.62.39-1.23.61-1.79l.66-1.62c.39-1,.88-1.93,1.26-2.73a19.86,19.86,0,0,1,1.09-2l.74-1.22A2.21,2.21,0,0,1,289.26,188.85Z" style="fill:#263238"></path><path d="M284.76,198.75s4.55,1.79,4.5,1.65a20.21,20.21,0,0,1,.66-2.18l-4.39-1.7Z" style="fill:#263238"></path><path d="M233.11,278c-2.93.72-5,3.21-6.91,5.56Q218.51,293.21,211,303c-1.92,2.5-3.9,5.18-4.23,8.32-.45,4.43,2.61,8.58,6.37,11a20.51,20.51,0,0,0,14.77,2.25l13.22-40.85C242.35,279.14,236,277.31,233.11,278Z" style="fill:#455a64"></path><path d="M234.59,286.1a12.4,12.4,0,0,1-.85,1.43l-2.47,3.8c-2.1,3.2-5,7.59-8.29,12.43s-6.36,9.13-8.16,12.48a27.27,27.27,0,0,0-1.83,4.11,16.41,16.41,0,0,1-.52,1.58,2.12,2.12,0,0,1,.06-.43,11.59,11.59,0,0,1,.28-1.21,23.09,23.09,0,0,1,1.7-4.21c1.75-3.44,4.84-7.74,8.06-12.6s6.24-9.2,8.41-12.35l2.6-3.71A9.82,9.82,0,0,1,234.59,286.1Z" style="fill:#263238"></path><path d="M281,187.71l-45,92.77,3.62,3.95L285.24,188A5.13,5.13,0,0,0,281,187.71Z" style="fill:#455a64"></path><path d="M241.07,280.29a1.8,1.8,0,0,1-.06.75,7.84,7.84,0,0,1-.66,1.93,8.66,8.66,0,0,1-1.77,2.47,4.93,4.93,0,0,1-1.52,1,2.66,2.66,0,0,1-2,.06,2,2,0,0,1-1.29-1.59,3.34,3.34,0,0,1,.25-1.85,28.86,28.86,0,0,1,1.48-2.63,16.2,16.2,0,0,1,1.52-2.3,15.13,15.13,0,0,1-1.21,2.48c-.38.75-.95,1.63-1.36,2.62a2.87,2.87,0,0,0-.2,1.59,1.55,1.55,0,0,0,1,1.22,2.22,2.22,0,0,0,1.66-.05,4.53,4.53,0,0,0,1.38-.93,9.07,9.07,0,0,0,1.78-2.29A21,21,0,0,0,241.07,280.29Z" style="fill:#263238"></path><path d="M236.37,282.73c0-.06.38-.19.8.22a1.14,1.14,0,0,1,.31.95,1.11,1.11,0,1,1-2.12-.59c.23-.55.67-.58.66-.52s-.24.21-.32.62a.79.79,0,0,0,.12.63.72.72,0,0,0,1.21-.24.79.79,0,0,0-.13-.62C236.67,282.83,236.36,282.8,236.37,282.73Z" style="fill:#263238"></path><path d="M259.9,132.67a5.86,5.86,0,0,0-8.58.21c-1.33,1.68-1.6,4-2.43,5.93a38,38,0,0,1-3.52,5.59c-1.2,1.85-2.19,4-1.89,6.2.31,2.35,2,4.3,2.49,6.63.54,2.72-.74,5.53-.4,8.29s2.13,4.93,3.86,7l4.65,5.58c1.81,2.18,3.8,4.48,6.54,5.22,3.28.89,6.65-.7,9.93-1.6a25.17,25.17,0,0,1,13.77.18c2.6.78,5.27,2,7.92,1.43,3.6-.77,5.73-4.58,6.4-8.19,1.49-7.93-1.9-16.15-7.11-22.31s-12.09-10.64-18.87-15" style="fill:#263238"></path><path d="M278,139.56a3.39,3.39,0,0,1,3,3.43h0l-1.92,45.7c-.07,5.4-8,8.45-13.73,8.32h0c-5.84-.12-6-3-6.12-8.11-.14-8.58-.14-11.8-.14-11.75s-7.37-1.23-8.9-10.85c-.76-4.78-.52-12.62-.11-19,.36-5.77,4.18-12.85,9.93-12.24Z" style="fill:#b77153"></path><path d="M254.16,152.73a1.24,1.24,0,0,0,1.19,1.25,1.18,1.18,0,0,0,1.27-1.12,1.24,1.24,0,0,0-1.19-1.24A1.17,1.17,0,0,0,254.16,152.73Z" style="fill:#263238"></path><path d="M251.77,151.35c.15.16,1.09-.54,2.41-.53s2.3.67,2.45.5-.09-.36-.51-.67a3.33,3.33,0,0,0-2-.6,3.22,3.22,0,0,0-1.92.62C251.83,151,251.69,151.27,251.77,151.35Z" style="fill:#263238"></path><path d="M267.08,152.73a1.24,1.24,0,0,0,1.19,1.25,1.18,1.18,0,0,0,1.27-1.12,1.23,1.23,0,0,0-1.18-1.24A1.19,1.19,0,0,0,267.08,152.73Z" style="fill:#263238"></path><path d="M264.82,151.59c.15.16,1.09-.53,2.41-.52s2.3.66,2.45.5-.09-.36-.51-.67a3.33,3.33,0,0,0-2-.6,3.22,3.22,0,0,0-1.92.62C264.88,151.23,264.74,151.52,264.82,151.59Z" style="fill:#263238"></path><path d="M260,161.44a8.55,8.55,0,0,0-2.16-.39c-.34,0-.66-.1-.71-.33a1.75,1.75,0,0,1,.22-1l1-2.58a45.54,45.54,0,0,0,2.26-6.75,43.77,43.77,0,0,0-2.79,6.55c-.34.91-.66,1.77-1,2.6a2,2,0,0,0-.18,1.33.83.83,0,0,0,.56.49,2.1,2.1,0,0,0,.57.08A8.81,8.81,0,0,0,260,161.44Z" style="fill:#263238"></path><path d="M259.08,177.15A24.53,24.53,0,0,0,272,173.71s-3.25,7-12.88,6.11Z" style="fill:#995037"></path><path d="M271.29,149.4c-.09-.37-1.43-.35-3-.72s-2.73-.93-3-.63c-.11.14.07.5.53.91a5.33,5.33,0,0,0,4.51,1C271,149.83,271.33,149.58,271.29,149.4Z" style="fill:#263238"></path><path d="M255.33,147.74c-.29-.25-1.13.23-2.2.46s-2,.19-2.19.54c-.06.17.14.44.6.64a3.08,3.08,0,0,0,1.88.13,3.12,3.12,0,0,0,1.65-.94C255.39,148.19,255.46,147.87,255.33,147.74Z" style="fill:#263238"></path><path d="M278.78,155.51a2.86,2.86,0,0,1,3.53.15,4.68,4.68,0,0,1-3.1,8.43" style="fill:#b77153"></path><path d="M280.19,161.42s.38,0,.9-.24a2.45,2.45,0,0,0,1.35-1.79,1.76,1.76,0,0,0-.29-1.27,2,2,0,0,0-.82-.66c-.55-.23-.93-.14-.92-.1s.34.09.8.35a1.61,1.61,0,0,1,.85,1.63,2.42,2.42,0,0,1-1.12,1.6C280.5,161.24,280.17,161.36,280.19,161.42Z" style="fill:#995037"></path><path d="M256,135.77c1.12-1,3.56-.33,4.66.73a10.7,10.7,0,0,1,2.17,4,7.18,7.18,0,0,0,2.55,3.72c1.54,1,3.65.55,5.2,1.49,2.6,1.58,2.08,3.88,3.15,5.65s3.05,5.56,5.08,5.94c2.31.43,5.18-1.8,7.49-1.38,2.1.39,3.48,3.07,5.61,3.06s3.87-5.63,3.58-7.87a8,8,0,0,0-3.86-5.32c-1.89-1.24-4-2.05-6-3.24s-3.8-2.92-5.76-4.31a25.75,25.75,0,0,0-24.11-2.8" style="fill:#263238"></path><path d="M261.64,165.25a.67.67,0,0,1-.16-.57,1.31,1.31,0,0,1,.25-.55,2,2,0,0,1,1.18-.82,1.44,1.44,0,0,1,1.34.4,6.47,6.47,0,0,0-2.56,1.39" style="fill:#995037"></path><path d="M264.8,163.8c0,.15-.83.22-1.72.65s-1.46,1-1.57.94.34-.9,1.36-1.38S264.82,163.67,264.8,163.8Z" style="fill:#263238"></path><path d="M272,133.35a5.2,5.2,0,0,1-1.67-1.62,19,19,0,0,0-1.61-1.89,4.32,4.32,0,0,0-2.51-1.34,4.93,4.93,0,0,0-2.82.59,8.94,8.94,0,0,0-2,1.47,19.07,19.07,0,0,1-1.65,1.61,7.32,7.32,0,0,1,1.4-1.86,8.43,8.43,0,0,1,2-1.62,5.25,5.25,0,0,1,3.1-.69,4.68,4.68,0,0,1,2.78,1.52,16.28,16.28,0,0,1,1.56,2C271.43,132.69,272.06,133.3,272,133.35Z" style="fill:#263238"></path><path d="M261,123a15.58,15.58,0,0,0-1.93,4.84,15.4,15.4,0,0,0,.23,5.21,3.45,3.45,0,0,1-.6-1.47,9.6,9.6,0,0,1-.12-3.82,9.47,9.47,0,0,1,1.37-3.57C260.53,123.34,261,122.94,261,123Z" style="fill:#263238"></path><path d="M322.54,158.54a1.37,1.37,0,0,1,.22.35,4.15,4.15,0,0,1,.33,1.15,5.54,5.54,0,0,1-1.23,4.17,7.26,7.26,0,0,1-5.9,2.48,13.1,13.1,0,0,1-7.48-2.64,14.48,14.48,0,0,1-4.87-6.25,24.76,24.76,0,0,1-1.28-6.36,38.38,38.38,0,0,0-.63-4.29c-.23-1-.42-1.53-.38-1.54s.08.12.18.37a9,9,0,0,1,.38,1.13,29.53,29.53,0,0,1,.8,4.29,25.3,25.3,0,0,0,1.36,6.23,14.19,14.19,0,0,0,4.74,6,12.79,12.79,0,0,0,7.18,2.58,6.93,6.93,0,0,0,5.62-2.25,5.47,5.47,0,0,0,1.32-3.91A7.07,7.07,0,0,0,322.54,158.54Z" style="fill:#263238"></path><path d="M286.65,134.71s.17,0,.32.22a.78.78,0,0,1-.32,1,2.66,2.66,0,0,1-1.76.08,3.52,3.52,0,0,1-2.06-1.09,1.92,1.92,0,0,1-.43-1.36,2.31,2.31,0,0,1,.63-1.39,3.26,3.26,0,0,1,3.1-.87,6.59,6.59,0,0,1,3.23,1.54,4.1,4.1,0,0,1,1.1,1.6,3.89,3.89,0,0,1,.16,2,4.57,4.57,0,0,1-2.18,3.16,5.87,5.87,0,0,1-3.49.77,8.86,8.86,0,0,1-5.3-2.67,19.7,19.7,0,0,1-2.51-3.12,8,8,0,0,1-.77-1.25,8.71,8.71,0,0,1,.92,1.14,24.21,24.21,0,0,0,2.6,3,8.61,8.61,0,0,0,5.09,2.46,5.48,5.48,0,0,0,3.21-.72,4.16,4.16,0,0,0,1.94-2.83,3.37,3.37,0,0,0-1.1-3.16,6.35,6.35,0,0,0-3-1.45,2.87,2.87,0,0,0-2.72.69,2.05,2.05,0,0,0-.55,1.16,1.54,1.54,0,0,0,.33,1.1,3.26,3.26,0,0,0,1.84,1,2.6,2.6,0,0,0,1.61,0,.66.66,0,0,0,.32-.82C286.79,134.76,286.63,134.73,286.65,134.71Z" style="fill:#263238"></path><path d="M302.91,134.18a36.6,36.6,0,0,0-5.68,5.36,36,36,0,0,0-4,6.74,7.37,7.37,0,0,1,.69-2.22,21,21,0,0,1,2.88-4.83,21.28,21.28,0,0,1,4.06-3.88A7.65,7.65,0,0,1,302.91,134.18Z" style="fill:#455a64"></path><path d="M296.74,146.49a8.14,8.14,0,0,0,8.41,1.22,13.32,13.32,0,0,0-7.93-1.49" style="fill:#455a64"></path><path d="M290.25,181.32a14,14,0,0,1,3.49-10,47.6,47.6,0,0,0-2.26,4.83A50.87,50.87,0,0,0,290.25,181.32Z" style="fill:#455a64"></path><path d="M295.78,183.26a8.29,8.29,0,0,1-1.56-3.36,8.12,8.12,0,0,1-.41-3.69c.15,0,.34,1.62.89,3.55S295.91,183.19,295.78,183.26Z" style="fill:#455a64"></path><path d="M295.49,172.43c.52,3.51,3.8,6.68,7,8.16a7,7,0,0,0-1.34-3.55,21,21,0,0,0-2.56-2.86,4.62,4.62,0,0,0-3-1.7" style="fill:#455a64"></path><path d="M242.12,136.22c.52,3.5,3.8,6.68,7,8.16a6.9,6.9,0,0,0-1.33-3.55,20.44,20.44,0,0,0-2.56-2.86,4.64,4.64,0,0,0-3-1.7" style="fill:#455a64"></path><path d="M247.86,146.8a26.7,26.7,0,0,0-4.06-1.22,27.66,27.66,0,0,0-4.23-.11,8.79,8.79,0,0,1,8.29,1.33Z" style="fill:#455a64"></path><path d="M268.88,159.74a.28.28,0,0,1-.37-.12.3.3,0,0,1,.06-.39.28.28,0,0,1,.37.13A.27.27,0,0,1,268.88,159.74Z" style="fill:#995037"></path><path d="M269.3,157.31a.3.3,0,1,1,.06-.38A.27.27,0,0,1,269.3,157.31Z" style="fill:#995037"></path><path d="M266.62,156.86a.3.3,0,1,1,.06-.38A.27.27,0,0,1,266.62,156.86Z" style="fill:#995037"></path><path d="M254.2,158.48a.28.28,0,0,1-.37-.12.29.29,0,0,1,.06-.39.3.3,0,0,1,.31.51Z" style="fill:#995037"></path><path d="M256.07,157.31a.27.27,0,0,1-.36-.13.27.27,0,0,1,.06-.38.27.27,0,0,1,.36.13A.27.27,0,0,1,256.07,157.31Z" style="fill:#995037"></path><path d="M271.52,156.86a.28.28,0,0,1-.37-.13.27.27,0,0,1,.06-.38.3.3,0,0,1,.31.51Z" style="fill:#995037"></path><path d="M252.75,157.37a.28.28,0,0,1-.37-.13.27.27,0,0,1,.06-.38.3.3,0,0,1,.31.51Z" style="fill:#995037"></path><path d="M270.54,159a.3.3,0,1,1,.06-.38A.27.27,0,0,1,270.54,159Z" style="fill:#995037"></path></g></svg>